{"title":"NaughtyOffice Sandee Westgate 1080p","uid":9016361,"size":1138496150,"categoryP":"porn","categoryS":"movie_clips","magnet":"?xt=urn:btih:a1954ca3f54c385675c1a0a01358616cf45d9d6d&amp;dn=NaughtyOffice+Sandee+Westgate+1080p&amp;tr=udp%3A%2F%2Ftracker.openbittorrent.com%3A80&amp;tr=udp%3A%2F%2Fopen.demonii.com%3A1337&amp;tr=udp%3A%2F%2Ftracker.coppersurfer.tk%3A6969&amp;tr=udp%3A%2F%2Fexodus.desync.com%3A6969","seeders":0,"leechers":1,"uploader":null,"files":2,"time":1381199814,"description":" &lt;a href=&quot;http://www.hostpornpics.net/pornmg/share.php?id=7B60_5253520F&quot; rel=&quot;nofollow&quot; target=&quot;_NEW&quot;&gt;http://www.hostpornpics.net/pornmg/share.php?id=7B60_5253520F&lt;/a&gt;\n\n\n\nDESCRIPTION...: Jared the new summer intern walks into Sandees office and after a quick exchange of words\nSandee has her own idea of work for the intern. Sandee asks Jared to close the door and she\nquickly slides off her panties from under her skirt while his back is turned. He comes back\nto grab his paperwork and she clumsily knocks over her cup of pens onto the floor. Jared\nquickly drops down to pick them up to see Sandees shaved pussy. She lets Jared know that\nwhen she sees something she wants she has to get it and Jared is on her bucket list.\n\nFormat : MPEG-4\nFormat profile : Base Media\nCodec ID : isom\nFile size : 1.06 GiB\nDuration : 29mn 22s\nOverall bit rate : 5 168 Kbps\nWriting application : Lavf54.29.104\n\nVideo\nID : 1\nFormat : AVC\nFormat/Info : Advanced Video Codec\nFormat profile : &lt;a class=&quot;__cf_email__&quot; href=&quot;/cdn-cgi/l/email-protection&quot; data-cfemail=&quot;eaa2838d82aaa6d9c4da&quot;&gt;[email&amp;#160;protected]&lt;/a&gt;&lt;script cf-hash='f9e31' type=&quot;text/javascript&quot;&gt;\n/* &lt;![CDATA[ */!function(){try{var t=&quot;currentScript&quot;in document?document.currentScript:function(){for(var t=document.getElementsByTagName(&quot;script&quot;),e=t.length;e--;)if(t[e].getAttribute(&quot;cf-hash&quot;))return t[e]}();if(t&amp;&amp;t.previousSibling){var e,r,n,i,c=t.previousSibling,a=c.getAttribute(&quot;data-cfemail&quot;);if(a){for(e=&quot;&quot;,r=parseInt(a.substr(0,2),16),n=2;a.length-n;n+=2)i=parseInt(a.substr(n,2),16)^r,e+=String.fromCharCode(i);e=document.createTextNode(e),c.parentNode.replaceChild(e,c)}}}catch(u){}}();/* ]]&gt; */&lt;/script&gt;\nFormat settings, CABAC : Yes\nFormat settings, ReFrames : 4 frames\nCodec ID : avc1\nCodec ID/Info : Advanced Video Coding\nDuration : 29mn 22s\nBit rate : 5 000 Kbps\nWidth : 1 920 pixels\nHeight : 1 080 pixels\nDisplay aspect ratio : 16:9\nFrame rate mode : Constant\nFrame rate : 30.000 fps\nColor space : YUV\nChroma subsampling : 4:2:0\nBit depth : 8 bits\nScan type : Progressive\nBits/(Pixel*Frame) : 0.080\nStream size : 1.03 GiB (97%)\nWriting library : x264 core 120\nLanguage : English\n\nAudio\nID : 2\nFormat : AAC\nFormat/Info : Advanced Audio Codec\nFormat profile : LC\nCodec ID : 40\nDuration : 29mn 22s\nBit rate mode : Constant\nBit rate : 160 Kbps\nChannel(s) : 2 channels\nChannel positions : Front: L R\nSampling rate : 48.0 KHz\nCompression mode : Lossy\nDelay relative to video : 67ms\nStream size : 33.6 MiB (3%)\nLanguage : English","torrent":{"xt":"urn:btih:a1954ca3f54c385675c1a0a01358616cf45d9d6d","amp;dn":"NaughtyOffice+Sandee+Westgate+1080p","amp;tr":["udp%3A%2F%2Ftracker.openbittorrent.com%3A80","udp%3A%2F%2Fopen.demonii.com%3A1337","udp%3A%2F%2Ftracker.coppersurfer.tk%3A6969","udp%3A%2F%2Fexodus.desync.com%3A6969"],"infoHash":"a1954ca3f54c385675c1a0a01358616cf45d9d6d","infoHashBuffer":{"type":"Buffer","data":[161,149,76,163,245,76,56,86,117,193,160,160,19,88,97,108,244,93,157,109]},"announce":[],"urlList":[]}}